<svg width="149" height="138" viewBox="0 0 149 138" fill="none" xmlns="http://www.w3.org/2000/svg">
<mask id="mask0_1_63" style="mask-type:luminance" maskUnits="userSpaceOnUse" x="0" y="0" width="149" height="138">
<path d="M149 0H0V138H149V0Z" fill="white"/>
</mask>
<g mask="url(#mask0_1_63)">
<path d="M129.189 19.4871L121.913 58.043C121.898 58.1201 121.903 58.1999 121.928 58.2741C121.953 58.3483 121.996 58.4142 122.054 58.4649C122.111 58.5156 122.181 58.5492 122.254 58.5622C122.329 58.5753 122.405 58.5673 122.475 58.5391L130.254 55.4718C130.273 55.5848 130.292 55.7018 130.309 55.8103C132.177 68.1248 130.808 80.7387 126.349 92.3015C121.89 103.864 114.509 113.94 104.996 121.451C95.4824 128.961 84.1959 133.622 72.344 134.936C60.4927 136.25 48.523 134.166 37.7167 128.908C49.0478 135.482 61.9161 138.595 74.8555 137.89C87.795 137.186 100.285 132.693 110.903 124.924C121.521 117.155 129.839 106.422 134.91 93.9473C139.981 81.4733 141.602 67.7594 139.586 54.3691L148.545 55.1299C148.621 55.1362 148.697 55.1208 148.766 55.0853C148.834 55.0499 148.891 54.9957 148.933 54.9285C148.974 54.8614 148.996 54.7839 148.999 54.7042C149.001 54.6246 148.983 54.5459 148.945 54.4763L129.967 19.3538C129.924 19.2758 129.86 19.2133 129.782 19.1747C129.705 19.1361 129.618 19.1231 129.534 19.1376C129.449 19.1521 129.371 19.1934 129.309 19.2559C129.247 19.3183 129.205 19.3991 129.189 19.4871Z" fill="url(#paint0_linear_1_63)"/>
<path d="M115.292 99.9251C109.414 107.746 101.865 114.017 93.2528 118.234C84.6395 122.451 75.2016 124.497 65.6962 124.208C56.1905 123.919 46.882 121.304 38.5174 116.571C30.1529 111.838 22.9651 105.119 17.5312 96.9545C12.0971 88.7904 8.56804 79.4066 7.22704 69.5569C5.88611 59.7075 6.7706 49.6662 9.80964 40.239C12.8486 30.8118 17.9575 22.2611 24.7263 15.273C31.495 8.28485 39.7353 3.05394 48.7858 0C37.1234 2.99875 26.5013 9.36649 18.1315 18.3768C9.76166 27.3872 3.98102 38.6773 1.449 50.9592C-1.08302 63.2411 -0.264451 76.0203 3.81133 87.8387C7.88713 99.6578 15.056 110.04 24.5002 117.801C33.9443 125.563 45.2834 130.391 57.2241 131.735C69.1647 133.078 81.2259 130.884 92.032 125.402C102.838 119.919 111.954 111.37 118.339 100.729C124.724 90.0878 128.122 77.7831 128.145 65.2189C127.287 77.8752 122.809 89.9682 115.292 99.9251Z" fill="url(#paint1_linear_1_63)"/>
<path d="M101.918 32.718C98.1701 37.712 93.9081 42.2592 89.2088 46.2776C89.1614 46.3184 89.1226 46.37 89.0964 46.4283C89.0701 46.4866 89.0564 46.5503 89.0564 46.6149V109.002C89.0564 109.504 88.904 109.993 88.621 110.398C88.3379 110.804 87.9394 111.104 87.4827 111.257L87.434 111.274C87.0953 111.387 86.7361 111.415 86.385 111.356C86.0339 111.297 85.7009 111.151 85.4142 110.932C85.1268 110.713 84.8931 110.426 84.732 110.094C84.5708 109.762 84.4871 109.396 84.4871 109.024V50.86C84.4871 50.78 84.4664 50.7016 84.4271 50.6331C84.3877 50.5646 84.3309 50.5089 84.2628 50.4719C84.1953 50.4348 84.1191 50.418 84.0429 50.4232C83.9667 50.4284 83.8929 50.4553 83.8305 50.5012C77.6081 54.9834 70.8247 58.5465 63.672 61.0895C63.5896 61.1185 63.5177 61.1741 63.4665 61.2482C63.4159 61.3223 63.3884 61.4113 63.3884 61.5026V111.888C63.3884 112.238 63.3141 112.583 63.171 112.899C63.0279 113.215 62.8199 113.495 62.5619 113.717C62.3034 113.939 62.0012 114.098 61.6769 114.183C61.3527 114.268 61.0144 114.278 60.6864 114.21L60.5977 114.191C60.0862 114.085 59.6257 113.796 59.2952 113.374C58.9647 112.952 58.7847 112.423 58.786 111.878C58.7978 106.453 58.8097 99.1486 58.8185 99.1539V63.217C58.8185 63.1499 58.8037 63.0838 58.7753 63.0236C58.747 62.9636 58.7058 62.9111 58.6549 62.8703C58.604 62.8295 58.5449 62.8016 58.482 62.7886C58.4192 62.7756 58.3543 62.7779 58.2924 62.7954L58.0856 62.8523C52.2505 64.4565 47.0874 68.0372 43.4029 73.0353C39.7183 78.034 37.7197 84.1681 37.7192 90.4799V98.7552C37.7203 99.2173 37.5918 99.6702 37.3496 100.056C37.1075 100.443 36.7623 100.747 36.3567 100.931C35.9512 101.114 35.5031 101.17 35.0679 101.089C34.6328 101.009 34.2296 100.798 33.9083 100.48C24.946 91.4682 19.2475 79.4844 17.7835 66.5699C16.3195 53.6556 19.1806 40.6097 25.8793 29.6547C32.5781 18.6997 42.7001 10.5134 54.5209 6.49039C66.3416 2.46737 79.1299 2.85654 90.7076 7.59161C81.592 3.05803 71.4831 1.15882 61.4293 2.09098C51.3756 3.02314 41.7434 6.75271 33.532 12.8928C25.3206 19.0329 18.8292 27.3598 14.7311 37.0097C10.6331 46.6595 9.07769 57.2808 10.2263 67.7719C11.375 78.2622 15.1858 88.2407 21.2635 96.6708C27.3412 105.102 35.4643 111.677 44.7901 115.715C54.116 119.753 64.3049 121.108 74.2995 119.638C84.2946 118.167 93.7307 113.925 101.63 107.353C104.386 105.363 106.957 103.106 109.307 100.611L109.554 100.335C109.943 99.8983 110.159 99.3231 110.158 98.7257V21.7748C110.158 21.7748 110.158 21.5002 110.158 21.1362C110.159 21.0389 110.128 20.9441 110.072 20.8668C110.015 20.7895 109.936 20.7341 109.846 20.7093C109.756 20.6845 109.66 20.6918 109.575 20.7299C109.489 20.768 109.418 20.8348 109.373 20.9198C107.199 25.0586 104.706 29.0045 101.918 32.718Z" fill="url(#paint2_linear_1_63)"/>
</g>
<defs>
<linearGradient id="paint0_linear_1_63" x1="37.7167" y1="78.5602" x2="148.999" y2="78.5602" gradientUnits="userSpaceOnUse">
<stop stop-color="#403BEB"/>
<stop offset="1" stop-color="#22B7A0"/>
</linearGradient>
<linearGradient id="paint1_linear_1_63" x1="0.00885002" y1="66.0594" x2="128.145" y2="66.0594" gradientUnits="userSpaceOnUse">
<stop stop-color="#403BEB"/>
<stop offset="1" stop-color="#22B7A0"/>
</linearGradient>
<linearGradient id="paint2_linear_1_63" x1="9.85886" y1="61.037" x2="110.158" y2="61.037" gradientUnits="userSpaceOnUse">
<stop stop-color="#403BEB"/>
<stop offset="1" stop-color="#22B7A0"/>
</linearGradient>
</defs>
</svg>
